<svg width="168" height="116" viewBox="0 0 168 116" fill="none" xmlns="http://www.w3.org/2000/svg">
<path d="M28.5242 51.9236L48.1234 63.0083L28.7241 74.4394L28.5242 51.9236Z" stroke="url(#paint0_linear)"/>
<path d="M50.976 38.88C47.072 33.888 41.472 31.392 34.176 31.392C26.88 31.392 21.28 33.888 17.376 38.88C13.536 43.872 11.616 51.232 11.616 60.96C11.616 70.688 13.536 78.048 17.376 83.04C21.28 88.032 26.88 90.528 34.176 90.528C41.472 90.528 47.072 88.032 50.976 83.04C54.88 78.048 56.832 70.688 56.832 60.96C56.832 51.232 54.88 43.872 50.976 38.88ZM34.176 96.96C24.768 96.96 17.344 93.824 11.904 87.552C6.528 81.216 3.84 72.352 3.84 60.96C3.84 49.568 6.528 40.736 11.904 34.464C17.344 28.128 24.768 24.96 34.176 24.96C43.648 24.96 51.072 28.128 56.448 34.464C61.888 40.736 64.608 49.568 64.608 60.96C64.608 68.832 63.168 75.552 60.288 81.12C57.472 86.624 53.472 90.656 48.288 93.216C48.224 93.216 48.192 93.248 48.192 93.312C48.192 93.44 48.224 93.504 48.288 93.504C56.8 95.552 63.808 99.968 69.312 106.752C69.888 107.456 69.952 108.224 69.504 109.056C69.056 109.952 68.352 110.4 67.392 110.4C64.512 110.4 62.08 109.184 60.096 106.752C57.024 103.168 53.536 100.64 49.632 99.168C45.728 97.696 40.576 96.96 34.176 96.96Z" fill="#EB5532"/>
<path d="M78.72 63.8L81 63.56V77H78.72V75.044L77.988 76.328C77.844 76.424 77.672 76.524 77.472 76.628C77.28 76.732 77.06 76.828 76.812 76.916C76.564 76.996 76.292 77.064 75.996 77.12C75.7 77.176 75.388 77.204 75.06 77.204C74.42 77.204 73.868 77.088 73.404 76.856C72.948 76.624 72.572 76.3 72.276 75.884C71.98 75.468 71.76 74.976 71.616 74.408C71.472 73.832 71.4 73.208 71.4 72.536V63.8L73.68 63.56V72.536C73.68 73.4 73.852 74.076 74.196 74.564C74.548 75.044 75.096 75.284 75.84 75.284C76.112 75.284 76.38 75.24 76.644 75.152C76.908 75.064 77.164 74.952 77.412 74.816C77.66 74.68 77.892 74.532 78.108 74.372C78.332 74.212 78.536 74.056 78.72 73.904V63.8ZM88.0706 77H85.7906V64.34L88.0706 64.1V77ZM85.7186 59H88.1426V61.4H85.7186V59ZM100.27 66.464C99.9579 66.184 99.5859 65.956 99.1539 65.78C98.7299 65.604 98.2899 65.516 97.8339 65.516C97.1619 65.516 96.5899 65.644 96.1179 65.9C95.6459 66.148 95.2619 66.488 94.9659 66.92C94.6779 67.352 94.4659 67.856 94.3299 68.432C94.1939 69 94.1259 69.6 94.1259 70.232C94.1259 70.888 94.1859 71.516 94.3059 72.116C94.4339 72.708 94.6459 73.232 94.9419 73.688C95.2379 74.144 95.6299 74.508 96.1179 74.78C96.6139 75.044 97.2299 75.176 97.9659 75.176C98.5819 75.176 99.1019 75.104 99.5259 74.96C99.9579 74.816 100.29 74.664 100.522 74.504L101.386 76.196C100.938 76.5 100.414 76.744 99.8139 76.928C99.2219 77.112 98.5499 77.204 97.7979 77.204C96.7979 77.204 95.9219 77.008 95.1699 76.616C94.4179 76.216 93.7899 75.688 93.2859 75.032C92.7899 74.368 92.4139 73.608 92.1579 72.752C91.9099 71.888 91.7859 70.996 91.7859 70.076C91.7859 69.244 91.9059 68.44 92.1459 67.664C92.3939 66.88 92.7659 66.188 93.2619 65.588C93.7659 64.988 94.3979 64.508 95.1579 64.148C95.9259 63.78 96.8259 63.596 97.8579 63.596C98.5939 63.596 99.2499 63.712 99.8259 63.944C100.41 64.168 100.954 64.556 101.458 65.108L100.27 66.464ZM104.986 77V59.96L104.746 57.8L107.266 57.56V68.72L111.706 63.8H114.454L110.014 68.72L107.998 69.476L110.014 70.196L115.786 77H112.954L107.266 70.316V77H104.986ZM126.341 75.08L126.581 77H116.753L116.513 76.4L122.069 67.088L123.893 65.24L121.433 65.72H117.557L117.317 63.8H125.765L126.005 64.388L120.617 73.64L118.805 75.56L121.265 75.08H126.341ZM132.461 77H130.181V64.34L132.461 64.1V77ZM130.109 59H132.533V61.4H130.109V59ZM144.661 66.464C144.349 66.184 143.977 65.956 143.545 65.78C143.121 65.604 142.681 65.516 142.225 65.516C141.553 65.516 140.981 65.644 140.509 65.9C140.037 66.148 139.653 66.488 139.357 66.92C139.069 67.352 138.857 67.856 138.721 68.432C138.585 69 138.517 69.6 138.517 70.232C138.517 70.888 138.577 71.516 138.697 72.116C138.825 72.708 139.037 73.232 139.333 73.688C139.629 74.144 140.021 74.508 140.509 74.78C141.005 75.044 141.621 75.176 142.357 75.176C142.973 75.176 143.493 75.104 143.917 74.96C144.349 74.816 144.681 74.664 144.913 74.504L145.777 76.196C145.329 76.5 144.805 76.744 144.205 76.928C143.613 77.112 142.941 77.204 142.189 77.204C141.189 77.204 140.313 77.008 139.561 76.616C138.809 76.216 138.181 75.688 137.677 75.032C137.181 74.368 136.805 73.608 136.549 72.752C136.301 71.888 136.177 70.996 136.177 70.076C136.177 69.244 136.297 68.44 136.537 67.664C136.785 66.88 137.157 66.188 137.653 65.588C138.157 64.988 138.789 64.508 139.549 64.148C140.317 63.78 141.217 63.596 142.249 63.596C142.985 63.596 143.641 63.712 144.217 63.944C144.801 64.168 145.345 64.556 145.849 65.108L144.661 66.464Z" fill="white"/>
<defs>
<linearGradient id="paint0_linear" x1="49.1233" y1="62.9994" x2="21.1245" y2="63.2481" gradientUnits="userSpaceOnUse">
<stop stop-color="#EB5532"/>
<stop offset="1" stop-color="white"/>
</linearGradient>
</defs>
</svg>
